# xmcd CD database file
#
# Track frame offsets:
#	150
#	13807
#	25030
#	36217
#	50290
#	61915
#	73315
#	85460
#	98605
#	112182
#	126215
#	136367
#	149150
#	160335
#	170915
#	183845
#	202692
#	219662
#	234005
#	244107
#
# Disc length: 3393 seconds
#
# Revision: 4
# Processed by: cddbd v1.5PL3 Copyright (c) Steve Scherf et al.
# Submitted via: CDex 1.51
#
DISCID=210d3f14
DTITLE=Ben E. King - Stand By Me
DYEAR=1900
DGENRE=
TTITLE0=Stand By Me
TTITLE1=Save The Last Dance For Me
TTITLE2=I (Who Have Nothing)
TTITLE3=That's When It Hurts
TTITLE4=I Could Have Danced All Night
TTITLE5=First Taste Of Love
TTITLE6=Dream Lover
TTITLE7=Moon River
TTITLE8=Spanish Harlem
TTITLE9=Amor
TTITLE10=I Count The Tears
TTITLE11=Don't Play That Song
TTITLE12=This Magic Moment
TTITLE13=Young Boy Blues
TTITLE14=It's All In The Game
TTITLE15=Supernatural Thing (Part 1)
TTITLE16=On The Street Where You Live
TTITLE17=Will You Still Love Me Tomorrow
TTITLE18=Show Me The Way
TTITLE19=Here Comes The Night
EXTD=
EXTT0=
EXTT1=
EXTT2=
EXTT3=
EXTT4=
EXTT5=
EXTT6=
EXTT7=
EXTT8=
EXTT9=
EXTT10=
EXTT11=
EXTT12=
EXTT13=
EXTT14=
EXTT15=
EXTT16=
EXTT17=
EXTT18=
EXTT19=
PLAYORDER=
